<svg width="24" height="24" viewBox="0 0 24 24" fill="none" xmlns="http://www.w3.org/2000/svg">
<path d="M12 4C10.4178 4 8.87103 4.46919 7.55544 5.34824C6.23985 6.22729 5.21447 7.47672 4.60897 8.93853C4.00347 10.4003 3.84504 12.0089 4.15372 13.5607C4.4624 15.1126 5.22433 16.538 6.34315 17.6569C7.46197 18.7757 8.88743 19.5376 10.4393 19.8463C11.9911 20.155 13.5997 19.9965 15.0615 19.391C16.5233 18.7855 17.7727 17.7602 18.6518 16.4446C19.5308 15.129 20 13.5822 20 12C20 10.9494 19.7931 9.90914 19.391 8.93853C18.989 7.96793 18.3997 7.08601 17.6569 6.34315C16.914 5.60028 16.0321 5.011 15.0615 4.60896C14.0909 4.20693 13.0506 4 12 4ZM12 18.4C10.7342 18.4 9.49683 18.0246 8.44435 17.3214C7.39188 16.6182 6.57157 15.6186 6.08717 14.4492C5.60277 13.2797 5.47603 11.9929 5.72298 10.7514C5.96992 9.50994 6.57946 8.36957 7.47452 7.47452C8.36958 6.57946 9.50995 5.96992 10.7514 5.72297C11.9929 5.47603 13.2797 5.60277 14.4492 6.08717C15.6186 6.57157 16.6182 7.39187 17.3214 8.44435C18.0246 9.49682 18.4 10.7342 18.4 12C18.4 13.6974 17.7257 15.3252 16.5255 16.5255C15.3253 17.7257 13.6974 18.4 12 18.4Z" fill="#F82C10"/>
<path d="M11.9998 14.4C11.558 14.4 11.1998 14.7582 11.1998 15.2C11.1998 15.6418 11.558 16 11.9998 16C12.4416 16 12.7998 15.6418 12.7998 15.2C12.7998 14.7582 12.4416 14.4 11.9998 14.4Z" fill="#F82C10"/>
<path d="M11.9998 13.5996C12.212 13.5996 12.4155 13.5153 12.5655 13.3653C12.7155 13.2153 12.7998 13.0118 12.7998 12.7996V8.79961C12.7998 8.58744 12.7155 8.38395 12.5655 8.23392C12.4155 8.0839 12.212 7.99961 11.9998 7.99961C11.7876 7.99961 11.5841 8.0839 11.4341 8.23392C11.2841 8.38395 11.1998 8.58744 11.1998 8.79961V12.7996C11.1998 13.0118 11.2841 13.2153 11.4341 13.3653C11.5841 13.5153 11.7876 13.5996 11.9998 13.5996Z" fill="#F82C10"/>
</svg>
